<?xml version="1.0" standalone="no"?>
<!DOCTYPE svg PUBLIC "-//W3C//DTD SVG 20010904//EN"
 "http://www.w3.org/TR/2001/REC-SVG-20010904/DTD/svg10.dtd">
<svg version="1.0" xmlns="http://www.w3.org/2000/svg"
 width="720.000000pt" height="720.000000pt" viewBox="0 0 720.000000 720.000000"
 preserveAspectRatio="xMidYMid meet">
<metadata>
Created by potrace 1.11, written by Peter Selinger 2001-2013
</metadata>
<g transform="translate(0.000000,720.000000) scale(0.100000,-0.100000)"
fill="#000000" stroke="none">
<path d="M2299 7171 c-24 -16 -53 -37 -65 -48 -11 -11 -31 -26 -44 -33 -13 -7
-47 -31 -75 -54 -29 -22 -96 -75 -150 -116 -148 -114 -222 -175 -346 -289
-270 -246 -444 -400 -499 -444 -213 -166 -370 -279 -485 -348 -112 -67 -131
-93 -78 -105 53 -11 59 -17 23 -23 -25 -4 -38 -14 -48 -34 -8 -16 -11 -31 -8
-35 13 -13 232 44 487 127 104 34 116 36 112 20 -3 -11 -9 -19 -12 -19 -4 0
-8 -6 -8 -12 0 -11 -32 -104 -73 -213 -4 -12 -43 -38 -93 -63 -96 -49 -224
-143 -336 -247 -42 -39 -110 -99 -151 -134 -72 -61 -160 -152 -160 -166 0 -3
33 26 73 67 40 40 100 95 132 122 33 28 85 73 115 102 62 58 257 202 310 229
86 44 170 49 170 10 0 -19 -44 -70 -120 -139 -163 -149 -368 -380 -512 -576
-28 -39 -54 -70 -58 -70 -9 0 -90 -80 -90 -88 0 -3 17 11 38 31 51 50 94 50
165 3 68 -45 121 -101 114 -119 -3 -8 -26 -24 -50 -36 -25 -12 -51 -29 -59
-38 -7 -9 18 0 56 21 52 29 76 37 100 33 29 -6 30 -5 7 6 -13 6 -50 39 -83 73
-32 34 -79 72 -104 85 -61 33 -59 44 30 159 69 88 80 101 161 193 39 43 76 87
83 97 18 25 172 163 177 159 2 -2 -5 -51 -16 -109 -10 -58 -28 -170 -39 -250
-25 -177 -70 -460 -76 -479 -4 -11 -9 -10 -27 6 -12 11 -35 28 -52 38 -20 13
-13 3 22 -31 80 -76 87 -100 63 -223 -11 -56 -20 -117 -20 -136 0 -25 -5 -35
-21 -40 -47 -15 -4 -15 112 0 304 39 415 58 496 86 47 17 115 37 152 45 36 8
103 24 149 35 55 13 124 20 205 22 125 2 167 -8 167 -38 0 -27 -134 -84 -440
-186 -160 -53 -345 -121 -388 -142 -32 -16 -298 -107 -397 -136 -55 -16 -92
-37 -175 -99 -144 -107 -238 -175 -263 -189 -21 -12 -21 -12 7 -22 35 -14 36
-14 30 2 -6 16 31 51 121 112 39 27 102 72 140 101 56 41 91 58 175 84 58 17
132 40 164 51 33 10 65 19 72 19 6 0 17 -28 24 -62 14 -71 63 -253 110 -408
18 -58 36 -120 40 -138 5 -19 10 -36 13 -38 2 -2 7 127 11 288 4 161 11 326
14 367 7 74 7 74 42 86 l36 13 2 -77 c3 -82 22 -205 47 -303 15 -55 15 -72 0
-189 -9 -71 -17 -182 -18 -246 l-2 -118 25 -3 c44 -5 110 -24 110 -33 0 -9
-48 -25 -103 -35 -28 -5 -39 -12 -43 -31 -4 -13 -4 -133 -1 -266 6 -277 14
-346 37 -332 5 3 10 -3 10 -14 0 -12 5 -21 10 -21 6 0 10 2 10 5 0 16 36 179
72 329 26 110 43 164 49 155 5 -8 9 -24 9 -37 0 -33 78 -377 102 -451 20 -62
20 -65 2 -78 -17 -12 -17 -13 3 -13 14 0 23 -8 28 -27 8 -32 35 -359 40 -494
3 -53 10 -110 16 -125 6 -16 13 -49 16 -74 14 -152 26 -241 34 -246 5 -3 9 16
9 43 0 26 5 68 11 93 5 24 14 83 19 130 12 114 61 372 106 552 36 143 38 148
63 148 54 0 72 -20 92 -98 10 -40 30 -105 44 -145 15 -39 25 -84 22 -99 -2
-20 1 -28 11 -28 11 0 13 7 8 28 -10 39 -20 272 -12 272 3 0 27 -21 52 -48 37
-37 43 -40 29 -17 -9 17 -31 42 -49 57 -29 25 -31 31 -38 120 -9 135 -9 868 0
868 4 0 6 17 4 38 -2 29 -1 34 8 22 28 -38 93 -190 140 -326 46 -133 56 -154
98 -197 40 -41 142 -108 142 -92 0 2 -24 20 -52 38 -100 65 -116 90 -174 285
-38 124 -105 283 -184 437 -29 55 -61 118 -72 139 -11 22 -63 104 -114 183
-72 109 -94 150 -94 175 1 50 64 299 75 298 13 -1 11 -35 -4 -128 -16 -94 -5
-127 61 -187 54 -48 171 -111 177 -94 2 6 -7 21 -19 34 -20 22 -22 31 -16 84
9 79 21 114 64 181 l35 55 12 -40 c40 -133 179 -316 290 -382 24 -15 125 -17
125 -3 0 6 7 10 16 10 59 0 65 277 9 422 -5 13 -2 15 14 11 24 -6 27 6 9 26
-9 10 -9 12 -1 7 6 -3 14 -2 17 3 4 5 -13 24 -36 43 -37 28 -203 164 -233 190
-5 4 -8 45 -7 91 3 112 24 337 31 337 4 0 24 -9 45 -21 38 -20 64 -17 35 4
-83 63 -83 62 -71 103 30 108 89 255 116 289 14 19 15 17 16 -35 1 -235 71
-626 152 -852 22 -63 45 -80 34 -25 -17 83 -26 208 -26 383 0 178 2 196 24
255 20 51 26 60 31 44 4 -11 38 -94 75 -185 37 -91 77 -192 89 -225 29 -77 68
-161 205 -432 17 -35 29 -27 22 15 -12 71 -19 922 -8 945 5 12 25 60 42 107
51 132 206 438 261 512 46 64 51 67 72 55 57 -32 168 -131 240 -215 l80 -92
59 -172 c32 -95 58 -176 58 -181 0 -5 -18 -7 -41 -4 -111 15 -257 -40 -378
-144 -73 -61 -86 -97 -17 -44 78 59 361 150 427 136 31 -6 35 -12 57 -76 13
-39 57 -161 97 -272 40 -112 76 -216 80 -233 6 -29 5 -30 -29 -30 -62 0 -139
-21 -209 -57 -58 -31 -304 -224 -323 -254 -13 -22 5 -18 44 11 42 30 55 30 27
0 -17 -19 -32 -80 -19 -80 5 0 39 23 75 50 80 60 228 135 307 156 31 8 86 15
122 15 70 0 251 -33 308 -56 69 -30 69 -15 0 61 -54 58 -49 64 22 29 14 -7 30
-10 36 -8 12 4 20 -23 63 -214 29 -128 30 -139 24 -303 -3 -93 -8 -170 -9
-170 -2 0 -27 9 -56 20 -197 72 -350 79 -415 18 -48 -45 -26 -84 92 -161 63
-41 282 -147 303 -147 14 0 45 -38 39 -47 -3 -5 -11 -56 -17 -113 -14 -118
-23 -142 -88 -220 -68 -81 -315 -323 -396 -388 -39 -32 -79 -64 -89 -73 -9 -9
-30 -22 -45 -30 -15 -8 -65 -39 -112 -70 -179 -119 -347 -189 -453 -189 -50 0
-74 9 -249 98 -195 98 -344 157 -372 146 -19 -7 -10 -32 42 -116 22 -35 50
-92 63 -127 14 -39 39 -80 62 -103 20 -21 37 -41 37 -43 0 -3 -11 -5 -24 -5
-28 0 -31 -3 -41 -48 -4 -20 -3 -32 4 -32 6 0 11 16 11 35 0 28 4 35 19 35 27
0 39 -19 44 -70 3 -37 5 -41 11 -23 9 25 22 30 29 11 6 -17 16 -7 20 20 2 12
8 27 15 34 8 8 7 18 -4 39 -17 33 -17 33 -45 16 -19 -11 -25 -7 -65 38 -43 49
-45 52 -42 109 4 70 25 92 100 102 53 7 59 1 72 -83 5 -36 3 -44 -14 -53 -16
-9 -26 -6 -54 15 -18 14 -38 25 -44 25 -22 0 -12 -19 18 -35 16 -8 34 -25 41
-36 l11 -21 24 23 c22 21 26 21 61 8 33 -13 40 -21 48 -57 17 -71 62 -82 120
-31 29 25 40 30 63 24 15 -4 38 -9 51 -11 13 -1 37 -12 52 -23 26 -19 32 -20
61 -8 46 19 176 17 189 -3 12 -19 23 -60 17 -65 -2 -2 -28 -5 -58 -7 -50 -3
-54 -1 -61 22 -7 25 -7 25 -14 -6 -10 -44 -36 -53 -137 -45 -92 7 -118 20
-118 58 0 13 -4 22 -8 19 -5 -3 -7 -19 -4 -36 4 -27 2 -30 -22 -30 -14 0 -40
13 -59 30 -28 24 -44 30 -81 30 -25 0 -46 -4 -46 -10 0 -10 3 -11 52 -14 15 0
33 -7 40 -15 8 -9 8 -11 1 -7 -6 3 -14 2 -18 -4 -4 -6 -13 -5 -25 2 -11 7 -22
10 -25 7 -8 -8 5 -39 17 -39 5 0 7 4 4 8 -3 5 15 10 39 10 25 1 45 -2 45 -6 0
-5 55 -12 123 -15 107 -6 223 -23 175 -26 -10 -1 -18 -5 -18 -11 0 -5 -7 -10
-15 -10 -10 0 -17 -15 -22 -42 l-8 -43 -6 40 -7 40 2 -40 c1 -33 6 -42 31 -55
46 -23 58 -37 39 -44 -8 -3 -13 -2 -10 2 3 4 -16 14 -41 22 -36 10 -53 11 -78
1 -24 -8 -40 -8 -61 -1 -18 7 -36 8 -53 1 -35 -13 -61 -10 -61 6 0 24 -1 28
-17 45 -10 12 -24 16 -39 12 -13 -4 -24 -2 -24 4 0 5 -7 12 -15 16 -12 4 -13
2 -2 -14 6 -11 19 -20 29 -20 31 0 48 -12 48 -35 0 -17 8 -26 30 -34 18 -6 30
-17 30 -28 1 -14 4 -13 14 7 13 23 20 25 93 26 62 2 87 -3 120 -19 l42 -22 30
30 c34 31 43 29 47 -12 2 -16 6 -42 9 -60 5 -27 2 -35 -20 -49 -16 -10 -34
-14 -51 -10 -17 5 -23 3 -19 -4 9 -14 51 -13 75 2 15 9 27 10 48 2 19 -7 35
-8 46 -2 21 12 33 4 41 -30 3 -15 17 -39 30 -54 31 -36 87 -37 167 -4 63 26
154 83 179 112 15 19 63 136 74 185 l6 26 38 -37 c42 -42 78 -54 115 -40 39
14 40 -5 1 -23 -19 -9 -35 -22 -35 -28 0 -7 10 -5 26 6 19 12 29 14 33 6 12
-18 43 24 122 162 70 124 100 157 142 157 8 0 31 14 52 30 21 17 49 33 62 36
31 8 30 24 -2 24 -14 0 -25 3 -25 8 1 21 25 36 100 62 73 25 87 27 114 16 24
-9 34 -23 46 -58 8 -26 23 -55 33 -65 23 -27 21 -43 -5 -43 -32 -1 -98 -32
-130 -63 -22 -20 -28 -35 -28 -66 0 -52 -14 -86 -50 -122 -29 -30 -30 -30 -62
-13 -40 21 -112 21 -162 0 -45 -19 -47 -28 -4 -15 36 10 88 12 88 4 0 -3 -9
-24 -21 -46 -21 -43 -20 -69 5 -69 8 0 22 -10 30 -22 13 -18 16 -19 16 -5 0 9
-13 23 -30 32 -36 19 -36 23 -7 66 24 35 35 38 103 24 26 -6 35 -2 68 35 52
58 63 84 46 115 -26 49 31 109 117 124 45 8 133 38 263 91 30 12 82 28 115 36
53 13 55 14 15 10 -25 -3 -94 -21 -153 -41 -59 -19 -114 -35 -123 -35 -15 0
-16 11 -10 92 4 50 9 95 12 99 2 4 55 6 117 4 139 -5 125 -1 -78 24 -88 11
-178 27 -200 34 -51 18 -58 48 -20 87 59 61 175 89 369 90 60 0 107 2 105 4
-2 2 -58 6 -123 10 -65 3 -121 8 -124 10 -4 5 51 232 71 290 l12 36 44 -83
c59 -111 113 -200 131 -214 11 -8 19 -8 28 0 10 8 16 7 23 -4 5 -9 9 15 9 69
0 54 4 81 10 77 6 -4 33 -33 60 -66 64 -76 65 -64 2 17 -41 52 -118 130 -252
254 -50 46 -164 130 -236 173 -56 33 -387 197 -399 197 -3 0 -29 12 -58 26
-28 14 -90 41 -137 60 -119 50 -253 128 -289 170 -26 29 -29 38 -20 55 5 11
22 25 37 30 45 17 146 19 212 3 84 -19 245 -84 360 -144 138 -73 377 -189 435
-212 27 -11 88 -31 135 -44 99 -29 160 -53 160 -66 0 -4 5 -8 10 -8 21 0 8 22
-24 41 l-34 20 -9 122 c-10 154 -7 208 14 224 28 22 81 14 146 -19 169 -88
237 -112 107 -39 -43 25 -59 39 -55 51 3 8 9 49 14 91 12 94 18 108 46 115 20
5 60 -13 150 -67 17 -10 43 -22 58 -28 26 -10 27 -10 16 11 -17 31 -90 198
-161 368 -56 133 -124 273 -192 392 -74 132 -110 278 -67 278 20 0 137 -109
193 -180 86 -109 166 -248 370 -640 50 -96 107 -190 114 -190 2 0 -23 54 -57
121 -33 67 -58 123 -56 125 2 2 46 -33 98 -79 106 -93 158 -132 165 -124 3 3
-18 47 -48 99 -29 51 -64 118 -77 148 -13 30 -34 78 -46 105 -19 41 -71 227
-100 349 -5 26 -4 28 9 17 11 -10 16 -10 16 -2 0 18 27 1 137 -87 152 -120
305 -222 334 -222 6 0 -8 21 -31 48 -23 26 -49 61 -57 77 -9 17 -26 44 -39 60
-20 27 -87 161 -159 320 -15 33 -57 140 -94 237 -36 97 -70 177 -76 178 -5 0
-12 -16 -15 -37 l-6 -38 -8 40 c-4 22 -13 46 -18 53 -8 9 -6 18 7 32 16 17 16
26 6 79 -6 32 -29 116 -50 187 -21 71 -53 189 -72 261 l-33 133 16 109 c15
107 17 111 59 156 24 26 45 52 47 58 2 7 -20 -13 -48 -43 -28 -31 -54 -70 -59
-90 -4 -19 -16 -70 -26 -113 -14 -65 -22 -81 -48 -101 -60 -45 -118 -61 -203
-57 -19 0 -62 21 -109 52 l-78 50 -50 -12 c-62 -15 -70 -7 -87 89 -18 96 -67
257 -95 313 -29 57 -30 59 -10 59 20 0 246 -60 267 -71 10 -5 22 -9 27 -9 5 0
37 -17 71 -37 l62 -37 82 12 c45 7 95 12 112 12 l29 1 -29 22 c-67 50 -231 94
-301 81 -11 -2 -36 -7 -55 -11 -33 -6 -34 -5 -20 12 8 10 37 36 63 57 27 21
44 38 39 38 -5 0 -40 -25 -77 -56 -44 -36 -71 -52 -78 -45 -6 6 -2 19 11 38
27 39 132 253 132 271 0 9 -13 3 -36 -18 -20 -17 -48 -37 -63 -43 -14 -6 -57
-39 -94 -74 -65 -59 -152 -123 -168 -123 -4 0 -17 16 -29 35 -12 19 -27 35
-33 35 -8 0 -8 -3 -2 -8 6 -4 19 -20 30 -37 36 -57 17 -204 -36 -268 -33 -40
-60 -46 -118 -26 -24 9 -35 8 -48 -2 -21 -18 -204 -17 -259 1 -44 14 -89 52
-110 92 -18 35 -19 34 21 35 20 1 42 7 51 14 27 22 62 91 100 197 25 70 47
113 68 134 l31 31 -27 -6 c-25 -7 -28 -4 -38 30 -17 60 -32 182 -25 206 3 13
-4 6 -18 -16 -28 -43 -75 -75 -82 -54 -5 17 -19 130 -17 140 1 4 -2 7 -8 7 -5
0 -10 10 -10 23 0 12 -12 42 -26 67 -15 25 -26 59 -26 75 0 17 -2 24 -5 18 -7
-18 -23 -16 -23 2 0 21 -37 19 -49 -2 -6 -11 -11 -13 -11 -5 0 7 -4 11 -9 8
-5 -4 -12 0 -15 6 -3 7 -3 -20 1 -59 5 -68 4 -73 -14 -73 -15 0 -20 -6 -19
-27 1 -24 11 -33 79 -68 67 -34 83 -47 108 -90 38 -66 69 -164 69 -218 0 -33
-8 -54 -30 -85 -35 -48 -75 -62 -165 -58 -95 5 -136 32 -199 129 -56 87 -112
143 -270 271 -53 43 -104 89 -112 101 -37 57 -2 172 81 262 l45 48 0 78 0 77
-880 0 -879 0 3 -97 c2 -54 4 -101 5 -105 0 -5 13 -8 29 -9 15 0 36 -4 47 -8
18 -7 16 -9 -12 -15 -18 -4 -36 -5 -41 -2 -15 9 -29 -9 -39 -49 l-10 -40 -7
30 c-4 17 -9 35 -11 41 -2 6 -23 15 -47 19 l-43 8 35 9 c19 6 41 12 48 14 9 2
10 16 6 46 -4 24 -8 45 -10 46 -1 2 -34 4 -73 4 -39 1 -71 2 -71 4 0 1 12 9
28 16 17 8 43 11 69 8 23 -4 40 -3 37 1 -2 4 3 9 11 13 9 3 15 18 15 36 0 26
-3 30 -28 30 -15 0 -48 -13 -73 -29z m-209 -191 c0 -5 -5 -10 -11 -10 -5 0 -7
5 -4 10 3 6 8 10 11 10 2 0 4 -4 4 -10z m1105 -480 c-5 -8 -11 -8 -17 -2 -6 6
-7 16 -3 22 5 8 11 8 17 2 6 -6 7 -16 3 -22z m-2520 -780 c3 -5 -1 -10 -9 -10
-9 0 -16 5 -16 10 0 6 4 10 9 10 6 0 13 -4 16 -10z m3700 -838 c-1 -1 -14 2
-29 7 -22 9 -26 17 -26 48 l0 37 29 -44 c15 -25 27 -46 26 -48z m-1 -39 c27
-12 42 -31 67 -82 90 -187 223 -496 234 -543 l7 -27 -54 27 c-60 31 -207 82
-236 82 -17 0 -20 12 -26 154 -6 145 -18 282 -32 369 -7 43 -6 43 40 20z
m-2024 -19 c0 -8 -5 -12 -10 -9 -6 4 -8 11 -5 16 9 14 15 11 15 -7z m15 -111
c11 -86 55 -307 70 -352 8 -25 15 -47 15 -50 0 -3 -27 -4 -61 -3 -84 5 -116
-3 -178 -43 l-53 -35 7 42 c22 138 110 442 136 475 6 7 22 13 35 13 20 0 24
-6 29 -47z m-1339 -265 c1 -73 15 -199 30 -282 9 -43 13 -80 11 -82 -3 -4 -53
-13 -154 -30 -44 -7 -43 6 7 148 23 62 52 149 66 193 36 112 39 115 40 53z
m3184 -228 c0 -5 -5 -10 -11 -10 -5 0 -7 5 -4 10 3 6 8 10 11 10 2 0 4 -4 4
-10z m1359 -85 c19 -39 17 -175 -3 -256 -16 -61 -70 -189 -80 -189 -3 0 -3 12
-2 28 2 15 4 132 5 261 l1 234 33 -25 c17 -14 38 -38 46 -53z m-1459 55 c12
-7 12 -12 2 -22 -10 -10 -15 -10 -22 2 -19 29 -9 39 20 20z m-1661 -76 c12
-15 21 -40 21 -56 0 -25 3 -28 20 -23 15 5 20 2 20 -13 0 -24 -23 -44 -42 -37
-9 4 -21 -7 -34 -30 -10 -20 -29 -38 -42 -42 -73 -18 -93 153 -25 206 35 28
57 26 82 -5z m3457 -251 c31 -28 141 -249 130 -261 -7 -6 -73 29 -117 61 -15
10 -42 22 -60 26 -32 6 -34 9 -31 44 2 21 8 52 13 70 5 17 9 44 9 59 0 36 17
36 56 1z m-3160 -158 c16 -24 12 -65 -7 -65 -10 0 -39 60 -39 80 0 19 30 10
46 -15z m2294 -1342 c0 -8 -7 -21 -15 -29 -18 -19 -20 -88 -2 -102 6 -6 29
-13 50 -17 31 -6 41 -14 53 -44 25 -58 73 -195 70 -199 -7 -7 -47 52 -52 77
-11 51 -24 71 -59 88 -28 13 -41 14 -71 5 l-36 -11 6 77 c10 115 26 181 42
175 8 -3 14 -12 14 -20z m-2931 -123 c11 -52 18 -97 16 -98 -2 -2 -22 2 -43 9
l-40 14 19 70 c10 39 19 81 20 95 1 35 6 20 28 -90z m1421 -164 c84 2 136 13
238 52 28 11 52 17 52 12 0 -4 -10 -10 -21 -13 -19 -5 -21 -10 -14 -39 23
-105 23 -109 5 -103 -9 3 -28 1 -41 -3 -14 -6 -30 -5 -39 1 -12 7 -28 3 -59
-13 -43 -21 -44 -21 -70 -3 -14 10 -50 25 -79 32 l-54 13 -37 -36 c-33 -32
-41 -36 -64 -27 -20 8 -28 20 -34 53 -7 35 -15 46 -43 60 -36 18 -47 40 -49
95 l-1 33 113 -58 c112 -57 112 -57 197 -56z m860 90 c0 -3 -4 -8 -10 -11 -5
-3 -10 -1 -10 4 0 6 5 11 10 11 6 0 10 -2 10 -4z m-72 -111 c-3 -3 -9 2 -12
12 -6 14 -5 15 5 6 7 -7 10 -15 7 -18z m-82 -405 c8 0 14 -5 14 -11 0 -5 5 -7
10 -4 19 12 10 -28 -13 -59 -12 -17 -28 -43 -36 -57 -13 -26 -48 -49 -75 -49
-9 0 -12 13 -9 44 4 40 2 44 -24 54 -38 15 -177 33 -181 23 -1 -4 -15 -6 -30
-3 -24 3 -29 -1 -37 -29 -14 -47 -41 -60 -65 -31 -24 29 -36 98 -20 117 20 25
67 19 87 -11 15 -24 18 -25 29 -9 13 18 30 3 19 -16 -5 -7 -2 -7 11 0 11 5 59
14 108 20 95 11 120 24 131 69 12 46 28 45 49 -3 10 -25 25 -45 32 -45z m-329
-182 c-3 -8 -6 -5 -6 6 -1 11 2 17 5 13 3 -3 4 -12 1 -19z m58 -38 c3 -5 11
-10 16 -10 6 0 7 5 4 10 -8 12 5 13 23 1 24 -15 -39 -30 -65 -16 -13 7 -20 15
-16 18 10 10 31 8 38 -3z"/>
<path d="M5098 7186 c-30 -11 -37 -26 -12 -26 10 0 14 -7 12 -20 -5 -33 15
-27 24 8 12 44 8 50 -24 38z"/>
<path d="M5189 7043 c-13 -16 -12 -17 4 -4 9 7 17 15 17 17 0 8 -8 3 -21 -13z"/>
<path d="M5110 7011 c0 -5 5 -13 10 -16 6 -3 10 -2 10 4 0 5 -4 13 -10 16 -5
3 -10 2 -10 -4z"/>
<path d="M4690 6998 c0 -10 -8 -21 -17 -27 -17 -9 -17 -11 -1 -27 15 -15 17
-15 34 10 16 25 16 28 1 44 -16 15 -17 15 -17 0z"/>
<path d="M5142 6790 c0 -14 2 -19 5 -12 2 6 2 18 0 25 -3 6 -5 1 -5 -13z"/>
<path d="M5136 6735 c-3 -8 -1 -15 4 -15 6 0 10 7 10 15 0 8 -2 15 -4 15 -2 0
-6 -7 -10 -15z"/>
<path d="M5322 6717 c-25 -9 -31 -15 -26 -30 4 -11 2 -17 -3 -14 -6 4 -9 -8
-8 -27 4 -61 84 -123 124 -95 10 8 46 33 79 56 33 24 63 47 66 52 7 10 -98 39
-159 44 -24 2 -39 9 -37 15 1 7 1 11 0 11 -2 -1 -18 -7 -36 -12z"/>
<path d="M5230 6710 c-8 -5 -11 -12 -8 -16 4 -3 14 1 23 10 18 17 9 21 -15 6z"/>
<path d="M5255 6640 c3 -5 11 -10 16 -10 6 0 7 5 4 10 -3 6 -11 10 -16 10 -6
0 -7 -4 -4 -10z"/>
<path d="M6138 6582 c-31 -15 -237 -32 -244 -20 -12 20 -22 5 -12 -17 19 -42
-20 -102 -122 -184 -14 -11 -19 -20 -13 -21 7 0 43 29 79 65 37 36 71 65 76
65 19 0 128 -71 128 -83 0 -24 -33 -60 -74 -78 l-41 -20 46 7 c25 3 65 0 90
-6 58 -16 159 -87 175 -125 8 -17 13 -23 14 -13 0 9 8 23 18 30 9 7 23 21 30
30 11 14 11 16 -7 11 -15 -4 -20 1 -23 19 -2 16 -13 27 -38 35 -26 9 -29 12
-12 12 26 1 29 22 5 43 -23 20 -110 63 -143 71 -14 3 -33 12 -43 20 -17 12
-14 16 45 51 50 30 67 35 81 27 21 -13 23 2 2 19 -12 10 -12 15 1 36 22 32 14
42 -18 26z"/>
<path d="M5180 6384 c0 -35 -15 -47 -41 -34 -24 11 -24 11 1 -9 14 -11 28 -21
32 -21 9 0 22 69 14 77 -3 4 -6 -2 -6 -13z"/>
<path d="M5060 6376 c28 -17 50 -21 35 -7 -6 5 -21 12 -35 15 l-25 7 25 -15z"/>
<path d="M6912 6382 l-133 -3 3 -32 3 -32 208 -3 207 -2 0 35 c0 34 -2 35 -37
36 -95 4 -126 4 -251 1z"/>
<path d="M5194 6312 c8 -13 66 -56 66 -49 0 3 -17 17 -37 33 -20 15 -33 23
-29 16z"/>
<path d="M6923 6202 c-45 -7 -22 -19 39 -21 40 -1 59 2 53 8 -12 11 -61 18
-92 13z"/>
<path d="M6701 6134 c0 -11 3 -14 6 -6 3 7 2 16 -1 19 -3 4 -6 -2 -5 -13z"/>
<path d="M6885 6130 c-27 -7 -25 -8 18 -9 48 -1 51 -4 49 -49 -1 -12 3 -20 9
-17 5 4 9 12 8 18 -5 40 1 47 43 47 23 0 39 3 35 6 -10 10 -87 11 -87 2 0 -5
-9 -4 -19 2 -11 5 -21 9 -23 9 -2 -1 -16 -5 -33 -9z"/>
<path d="M6241 6114 c0 -11 3 -14 6 -6 3 7 2 16 -1 19 -3 4 -6 -2 -5 -13z"/>
<path d="M7128 6106 c-24 -18 -23 -25 2 -19 11 3 20 12 20 19 0 17 0 17 -22 0z"/>
<path d="M477 5743 c-4 -3 -7 -11 -7 -17 0 -6 5 -5 12 2 6 6 9 14 7 17 -3 3
-9 2 -12 -2z"/>
<path d="M348 5678 c-62 -28 -68 -34 -68 -61 l0 -30 58 7 c31 4 80 12 107 19
44 12 50 17 53 42 4 34 -19 55 -57 54 -14 0 -56 -14 -93 -31z"/>
<path d="M150 5595 l-65 -24 41 0 c65 -1 102 9 107 30 6 24 -1 23 -83 -6z"/>
<path d="M214 4858 c-83 -92 -221 -278 -206 -278 4 0 13 10 21 23 21 34 147
199 173 227 32 35 51 60 46 60 -3 0 -18 -15 -34 -32z"/>
<path d="M65 4400 c3 -5 11 -10 16 -10 6 0 7 5 4 10 -3 6 -11 10 -16 10 -6 0
-7 -4 -4 -10z"/>
<path d="M100 4360 c-16 -16 -30 -33 -30 -37 0 -4 16 8 35 27 19 19 35 35 35
37 0 8 -12 0 -40 -27z"/>
<path d="M439 4373 c-13 -16 -12 -17 4 -4 9 7 17 15 17 17 0 8 -8 3 -21 -13z"/>
<path d="M2523 4307 c-6 -10 -21 -2 134 -80 120 -61 163 -77 163 -62 0 41 -78
130 -123 139 -43 10 -169 12 -174 3z"/>
<path d="M19 4283 l-24 -26 33 23 c33 25 38 30 24 30 -5 0 -19 -12 -33 -27z"/>
<path d="M3713 4223 c-60 -29 -88 -74 -97 -157 -5 -41 -4 -47 10 -42 25 10
284 208 284 217 0 5 -33 9 -72 8 -57 0 -85 -6 -125 -26z"/>
<path d="M6372 3556 c18 -24 35 -42 37 -40 7 6 -49 84 -59 84 -6 0 4 -20 22
-44z"/>
<path d="M6090 3556 c0 -2 7 -7 16 -10 8 -3 12 -2 9 4 -6 10 -25 14 -25 6z"/>
<path d="M55 3530 c33 -11 64 -18 70 -17 14 5 -84 37 -109 36 -12 0 6 -9 39
-19z"/>
<path d="M6157 3519 c7 -7 15 -10 18 -7 3 3 -2 9 -12 12 -14 6 -15 5 -6 -5z"/>
<path d="M160 3495 c14 -8 30 -14 35 -14 6 0 -1 6 -15 14 -14 8 -29 14 -35 14
-5 0 1 -6 15 -14z"/>
<path d="M6210 3497 c0 -3 17 -17 37 -33 20 -15 33 -23 29 -16 -8 13 -66 56
-66 49z"/>
<path d="M6439 3451 c6 -10 30 -34 53 -52 l43 -32 -50 51 c-54 57 -61 62 -46
33z"/>
<path d="M3006 3388 c-20 -28 -20 -38 -1 -38 14 0 35 29 35 49 0 18 -18 12
-34 -11z"/>
<path d="M510 3360 c8 -5 20 -10 25 -10 6 0 3 5 -5 10 -8 5 -19 10 -25 10 -5
0 -3 -5 5 -10z"/>
<path d="M586 3325 c10 -8 24 -14 29 -14 6 0 1 6 -9 14 -11 8 -24 15 -30 15
-5 0 -1 -7 10 -15z"/>
<path d="M6577 3329 c12 -15 73 -53 73 -46 0 2 -19 17 -42 32 -24 16 -38 22
-31 14z"/>
<path d="M635 3300 c3 -5 11 -10 16 -10 6 0 7 5 4 10 -3 6 -11 10 -16 10 -6 0
-7 -4 -4 -10z"/>
<path d="M702 3272 c20 -9 52 -12 83 -9 65 7 183 -8 265 -34 125 -40 180 -89
180 -162 0 -57 -14 -62 -184 -61 l-151 1 100 -9 c136 -12 222 -3 236 24 15 28
6 100 -17 131 -25 34 -154 94 -240 111 -38 8 -122 16 -187 18 -108 3 -116 2
-85 -10z"/>
<path d="M6664 3271 c4 -6 16 -16 28 -22 15 -8 18 -8 14 0 -4 6 -16 16 -28 22
-15 8 -18 8 -14 0z"/>
<path d="M6740 3222 c0 -4 10 -13 23 -21 22 -14 22 -14 3 8 -20 22 -26 25 -26
13z"/>
<path d="M6790 3187 c0 -3 33 -33 73 -68 39 -35 61 -51 47 -35 -28 32 -120
110 -120 103z"/>
<path d="M4024 3139 c-46 -49 -180 -133 -307 -194 -119 -57 -158 -89 -66 -54
142 54 396 210 413 254 10 27 -11 24 -40 -6z"/>
<path d="M5779 3111 c13 -12 50 -29 82 -39 33 -9 58 -21 56 -27 -3 -9 -54 -39
-81 -48 -5 -2 -6 -8 -3 -14 10 -16 59 2 87 32 l22 24 74 -65 c41 -35 77 -64
81 -64 13 1 -169 170 -182 170 -10 0 -69 19 -140 44 -17 7 -17 5 4 -13z"/>
<path d="M151 3039 c-81 -4 -138 -12 -145 -19 -8 -9 17 -10 114 -4 144 10 327
11 520 2 74 -4 117 -4 95 -2 -22 2 -98 11 -170 19 -137 15 -196 16 -414 4z"/>
<path d="M6979 2993 c26 -38 49 -56 33 -27 -6 11 -20 28 -33 39 l-23 20 23
-32z"/>
<path d="M818 3003 c12 -2 32 -2 45 0 12 2 2 4 -23 4 -25 0 -35 -2 -22 -4z"/>
<path d="M7030 2935 c0 -5 5 -17 10 -25 5 -8 10 -10 10 -5 0 6 -5 17 -10 25
-5 8 -10 11 -10 5z"/>
<path d="M3160 2842 c0 -6 8 -13 17 -16 32 -13 168 -18 203 -9 30 9 20 11 -75
17 -60 4 -118 10 -127 12 -10 3 -18 1 -18 -4z"/>
<path d="M5775 2420 c-3 -5 1 -10 10 -10 9 0 13 5 10 10 -3 6 -8 10 -10 10 -2
0 -7 -4 -10 -10z"/>
<path d="M2760 2395 c14 -16 40 -20 40 -6 0 9 -24 21 -42 21 -6 0 -6 -6 2 -15z"/>
<path d="M2848 2325 c-2 -2 -18 -5 -36 -7 -39 -3 -40 -10 -11 -121 11 -44 18
-88 16 -98 -3 -12 2 -18 18 -21 21 -4 23 -1 29 70 8 104 8 170 -3 176 -4 3
-10 3 -13 1z"/>
<path d="M1448 2075 c-2 -25 0 -53 4 -63 8 -20 9 -14 12 61 2 60 -11 62 -16 2z"/>
<path d="M2901 2040 c14 -31 19 -36 19 -24 0 6 -7 19 -16 30 -14 18 -14 18 -3
-6z"/>
<path d="M5775 2020 c3 -5 10 -10 16 -10 7 0 79 -30 112 -47 4 -2 7 -1 7 2 0
5 -125 65 -137 65 -2 0 -1 -4 2 -10z"/>
<path d="M108 1963 c12 -2 30 -2 40 0 9 3 -1 5 -23 4 -22 0 -30 -2 -17 -4z"/>
<path d="M2338 1953 c7 -3 16 -2 19 1 4 3 -2 6 -13 5 -11 0 -14 -3 -6 -6z"/>
<path d="M2390 1956 c0 -9 40 -13 46 -5 3 5 -6 9 -20 9 -14 0 -26 -2 -26 -4z"/>
<path d="M5924 1952 c7 -11 98 -72 181 -122 65 -38 27 -7 -70 57 -115 76 -120
79 -111 65z"/>
<path d="M6493 1933 c9 -2 25 -2 35 0 9 3 1 5 -18 5 -19 0 -27 -2 -17 -5z"/>
<path d="M6160 1796 c0 -2 8 -10 18 -17 15 -13 16 -12 3 4 -13 16 -21 21 -21
13z"/>
<path d="M3155 1760 c3 -5 11 -10 16 -10 6 0 7 5 4 10 -3 6 -11 10 -16 10 -6
0 -7 -4 -4 -10z"/>
<path d="M6230 1740 c0 -5 5 -10 11 -10 5 0 7 5 4 10 -3 6 -8 10 -11 10 -2 0
-4 -4 -4 -10z"/>
<path d="M2790 1720 c0 -5 7 -7 15 -4 8 4 15 8 15 10 0 2 -7 4 -15 4 -8 0 -15
-4 -15 -10z"/>
<path d="M3458 1723 c7 -3 16 -2 19 1 4 3 -2 6 -13 5 -11 0 -14 -3 -6 -6z"/>
<path d="M2700 1700 l-35 -7 43 -2 c23 0 42 4 42 9 0 6 -3 9 -7 9 -5 -1 -24
-5 -43 -9z"/>
<path d="M3145 1670 c-3 -5 -1 -10 4 -10 6 0 11 5 11 10 0 6 -2 10 -4 10 -3 0
-8 -4 -11 -10z"/>
<path d="M6340 1650 c0 -5 14 -10 32 -10 36 0 35 4 -4 14 -17 4 -28 2 -28 -4z"/>
<path d="M4427 1593 c-4 -3 -7 -22 -6 -42 l1 -36 9 39 c9 39 8 52 -4 39z"/>
<path d="M3365 1550 c-3 -5 -1 -10 4 -10 6 0 11 5 11 10 0 6 -2 10 -4 10 -3 0
-8 -4 -11 -10z"/>
<path d="M3550 1546 c0 -2 16 -6 35 -8 19 -2 35 0 35 4 0 4 -16 8 -35 8 -19 0
-35 -2 -35 -4z"/>
<path d="M25 1510 c-3 -6 1 -7 9 -4 18 7 21 14 7 14 -6 0 -13 -4 -16 -10z"/>
<path d="M4411 1494 c0 -11 3 -14 6 -6 3 7 2 16 -1 19 -3 4 -6 -2 -5 -13z"/>
<path d="M4830 1501 c0 -6 4 -13 10 -16 6 -3 7 1 4 9 -7 18 -14 21 -14 7z"/>
<path d="M2520 1425 c0 -8 4 -15 10 -15 5 0 7 7 4 15 -4 8 -8 15 -10 15 -2 0
-4 -7 -4 -15z"/>
<path d="M1896 1360 c3 -14 7 -25 8 -25 0 -1 25 -15 55 -33 72 -44 78 -33 8
12 -31 20 -61 44 -67 53 -9 15 -10 14 -4 -7z"/>
<path d="M131 1340 c-30 -17 -59 -30 -65 -30 -17 0 -72 -47 -64 -55 6 -6 198
101 198 111 0 9 -17 3 -69 -26z"/>
<path d="M5166 1345 c-3 -9 -6 -22 -5 -28 0 -7 5 -1 10 12 5 13 8 26 5 28 -2
2 -6 -3 -10 -12z"/>
<path d="M4654 1334 c-18 -14 -18 -15 4 -4 12 6 22 13 22 15 0 8 -5 6 -26 -11z"/>
<path d="M2151 1298 c-1 -9 -17 -29 -36 -44 -34 -26 -36 -26 -55 -9 -11 10
-23 16 -25 13 -3 -3 9 -18 27 -33 48 -40 336 -323 382 -375 38 -44 38 -45 10
-5 -15 22 -31 42 -34 45 -3 3 -22 25 -42 49 -29 34 -35 48 -28 61 8 15 6 17
-8 13 -12 -3 -51 26 -122 92 -58 53 -107 104 -108 112 -2 8 8 28 23 43 15 16
25 34 22 42 -4 9 -6 8 -6 -4z"/>
<path d="M2446 1255 c-9 -26 -7 -32 5 -12 6 10 9 21 6 23 -2 3 -7 -2 -11 -11z"/>
<path d="M5129 1244 c-44 -116 -95 -301 -85 -311 2 -2 7 10 11 27 4 18 27 93
51 168 23 75 41 138 39 141 -3 2 -9 -9 -16 -25z"/>
<path d="M2430 1211 c0 -10 -10 -13 -62 -25 -16 -4 -28 -13 -28 -20 0 -11 6
-11 33 -2 50 17 83 41 69 50 -7 4 -12 3 -12 -3z"/>
<path d="M2340 1140 c-9 -27 -6 -49 8 -70 9 -14 15 -29 13 -35 -1 -5 7 -1 18
9 26 24 27 36 1 36 -13 0 -22 10 -29 33 -5 17 -10 30 -11 27z"/>
<path d="M2420 1090 c-12 -8 -10 -10 8 -10 13 0 20 4 17 10 -7 12 -6 12 -25 0z"/>
<path d="M5032 900 c0 -14 2 -19 5 -12 2 6 2 18 0 25 -3 6 -5 1 -5 -13z"/>
<path d="M2492 773 c2 -5 14 -32 27 -60 13 -29 27 -53 32 -53 5 0 -4 27 -21
60 -17 33 -33 60 -36 60 -3 0 -4 -3 -2 -7z"/>
<path d="M7140 743 c0 -29 58 -209 59 -185 1 7 -8 47 -19 88 -21 78 -20 110 1
58 10 -24 13 -26 17 -10 4 19 -25 67 -46 74 -7 2 -12 -7 -12 -25z"/>
<path d="M4 717 c4 -15 9 -48 13 -73 4 -30 9 -41 14 -32 7 10 9 9 9 -3 0 -9
-6 -22 -14 -29 -17 -13 -11 -35 15 -61 19 -19 36 -9 23 13 -5 8 0 9 17 3 13
-4 56 -8 95 -8 58 0 82 5 127 27 57 27 79 58 58 79 -16 16 -154 21 -224 8 -31
-6 -64 -8 -73 -4 -9 3 -27 29 -41 57 -14 29 -22 39 -19 23z m344 -106 c3 -10
0 -12 -12 -8 -9 4 -14 3 -11 -2 3 -5 -3 -12 -12 -15 -25 -8 -38 -6 -35 5 1 5
-5 12 -15 16 -15 6 -15 7 3 14 29 11 77 5 82 -10z m-238 -26 c0 -27 -13 -32
-34 -13 -9 9 -10 16 -2 25 18 20 36 15 36 -12z m-60 -45 c0 -5 -2 -10 -4 -10
-3 0 -8 5 -11 10 -3 6 -1 10 4 10 6 0 11 -4 11 -10z m157 4 c-3 -3 -12 -4 -19
-1 -8 3 -5 6 6 6 11 1 17 -2 13 -5z"/>
<path d="M1950 715 c10 -12 10 -15 -4 -15 -9 0 -16 -4 -16 -10 0 -5 7 -10 15
-10 8 0 15 -7 15 -15 0 -9 9 -15 25 -15 18 0 25 5 25 19 0 11 6 21 13 24 25 8
-14 37 -50 37 -30 0 -34 -2 -23 -15z"/>
<path d="M2052 717 c-11 -13 -11 -20 -1 -39 19 -33 19 -45 7 -123 -7 -50 -7
-70 1 -73 17 -6 13 -22 -11 -42 -21 -16 -25 -17 -40 -3 -9 8 -29 13 -44 11
-25 -3 -28 -7 -31 -45 -2 -34 1 -45 18 -54 16 -8 24 -7 38 5 22 20 30 20 71
-1 50 -25 264 -18 298 10 10 8 16 7 21 -2 10 -15 61 -4 61 13 0 7 -7 21 -15
32 -8 10 -15 29 -15 42 0 29 36 100 64 124 l21 19 -33 -6 c-26 -5 -37 -2 -51
14 -10 12 -21 21 -23 21 -3 0 -21 15 -40 33 -62 57 -265 101 -296 64z m95
-103 c-3 -3 -12 -4 -19 -1 -8 3 -5 6 6 6 11 1 17 -2 13 -5z m-22 -24 c7 -12
-2 -12 -30 0 -19 8 -19 9 2 9 12 1 25 -3 28 -9z m78 3 c4 -3 -2 -13 -14 -21
-25 -17 -36 -9 -18 12 16 17 23 19 32 9z m104 -62 c70 -49 91 -75 73 -86 -14
-8 -30 3 -30 21 0 8 -10 15 -22 15 -55 4 -65 5 -90 13 -16 4 -26 11 -23 15 2
4 -2 19 -10 34 -13 26 -9 34 21 36 6 1 42 -21 81 -48z"/>
<path d="M1968 633 c7 -3 16 -2 19 1 4 3 -2 6 -13 5 -11 0 -14 -3 -6 -6z"/>
<path d="M2001 617 c-1 -24 -4 -27 -22 -22 -13 4 -27 1 -39 -10 -26 -24 -63
-11 -54 18 4 14 -3 9 -18 -13 -13 -19 -34 -36 -46 -38 -14 -2 -22 -10 -22 -22
0 -10 -4 -22 -10 -25 -24 -15 -6 -25 45 -25 51 0 56 2 66 27 5 14 8 32 5 40
-3 7 -1 13 4 13 11 0 13 -12 11 -47 -3 -26 15 -38 57 -38 41 0 46 17 34 105
-5 36 -10 52 -11 37z"/>
<path d="M2801 465 c-17 -53 -31 -100 -31 -104 0 -10 57 -24 87 -22 11 1 24
-3 28 -8 4 -7 -7 -11 -30 -11 -43 0 -37 -8 40 -57 67 -42 138 -74 270 -123
104 -38 135 -46 135 -35 0 4 -53 106 -75 145 -22 36 -139 162 -165 175 -33 17
-165 30 -173 18 -8 -13 -67 -3 -67 11 0 6 11 16 25 22 19 9 27 9 36 -2 13 -15
69 -19 69 -5 0 10 80 26 238 46 76 10 53 26 -31 21 -40 -2 -62 -2 -49 1 49 10
18 20 -55 18 -51 -2 -94 -10 -123 -23 -25 -11 -56 -23 -69 -27 -22 -7 -24 -5
-18 24 13 65 -12 27 -42 -64z m252 78 c-7 -2 -19 -2 -25 0 -7 3 -2 5 12 5 14
0 19 -2 13 -5z"/>
<path d="M6660 518 c40 -36 336 -263 367 -282 25 -14 2 21 -28 43 -16 12 -27
26 -24 31 6 10 -25 44 -33 35 -3 -3 3 -12 14 -20 10 -8 14 -15 8 -15 -6 0 -19
9 -29 20 -13 14 -14 20 -5 20 9 0 7 7 -6 22 l-19 22 30 -20 c28 -20 93 -28 88
-11 -2 4 -3 12 -3 17 0 6 -8 10 -17 11 -11 0 -13 3 -5 6 6 2 12 12 12 20 0 10
-6 13 -16 9 -11 -4 -15 -2 -11 8 7 17 -19 30 -27 13 -3 -7 -4 -3 -1 9 5 19 -3
23 -67 42 -89 26 -187 44 -199 36 -5 -3 -19 2 -31 10 -44 31 -42 15 2 -26z"/>
<path d="M1835 441 c-3 -6 -15 -11 -25 -11 -10 0 -25 -6 -32 -14 -8 -8 -23
-16 -34 -18 -12 -2 -19 -12 -19 -28 0 -24 3 -25 75 -31 41 -3 78 -3 82 0 3 3
9 27 13 54 6 39 5 47 -8 47 -8 0 -22 3 -30 6 -8 3 -18 1 -22 -5z"/>
<path d="M190 366 c0 -2 8 -10 18 -17 15 -13 16 -12 3 4 -13 16 -21 21 -21 13z"/>
<path d="M1778 310 c-10 -6 -18 -19 -19 -28 -1 -10 -4 -7 -8 8 -7 24 -8 24
-15 -10 -5 -19 -12 -40 -18 -47 -14 -18 41 -41 76 -32 16 5 33 6 37 3 11 -7
49 14 49 26 0 6 -7 10 -16 10 -8 0 -13 4 -9 10 3 5 13 6 21 3 12 -5 15 1 12
28 -3 32 -5 34 -48 36 -25 2 -53 -2 -62 -7z m12 -74 c0 -3 -4 -8 -10 -11 -5
-3 -10 -1 -10 4 0 6 5 11 10 11 6 0 10 -2 10 -4z"/>
<path d="M2402 295 c1 -16 -2 -39 -7 -50 -8 -19 -8 -19 12 -2 16 14 32 17 74
13 l54 -6 -49 16 c-27 9 -58 26 -67 38 l-18 21 1 -30z"/>
<path d="M1940 285 c0 -29 15 -33 29 -6 11 20 5 31 -16 31 -7 0 -13 -11 -13
-25z"/>
<path d="M2758 268 c-2 -26 -7 -33 -23 -31 -11 1 -48 5 -82 9 -95 10 -76 -10
24 -27 l88 -14 35 -70 c43 -87 77 -135 95 -135 8 0 -7 31 -37 76 -60 91 -76
128 -79 182 -3 50 -16 56 -21 10z"/>
<path d="M1360 259 c0 -5 5 -7 10 -4 6 3 10 8 10 11 0 2 -4 4 -10 4 -5 0 -10
-5 -10 -11z"/>
<path d="M1690 260 c0 -5 5 -10 10 -10 6 0 10 5 10 10 0 6 -4 10 -10 10 -5 0
-10 -4 -10 -10z"/>
<path d="M4950 205 c-1 -33 -5 -87 -9 -120 -5 -33 -6 -66 -3 -73 7 -19 62 -15
62 4 0 10 -6 14 -15 10 -12 -4 -15 7 -16 72 0 42 -4 97 -8 122 l-8 45 -3 -60z"/>
<path d="M1945 240 c3 -5 11 -10 16 -10 6 0 7 5 4 10 -3 6 -11 10 -16 10 -6 0
-7 -4 -4 -10z"/>
<path d="M5392 93 c-40 -84 -47 -117 -17 -77 15 21 68 155 62 160 -2 2 -22
-36 -45 -83z"/>
<path d="M2167 59 c-37 -27 -67 -51 -67 -55 0 -7 14 2 80 50 30 22 57 42 59
43 2 2 2 5 0 7 -3 3 -35 -17 -72 -45z"/>
<path d="M5011 24 c0 -11 3 -14 6 -6 3 7 2 16 -1 19 -3 4 -6 -2 -5 -13z"/>
</g>
</svg>
